<svg width="24" height="24" viewBox="0 0 24 24" fill="none" xmlns="http://www.w3.org/2000/svg">
<circle cx="12" cy="12" r="11.7" fill="#F8F8F8" stroke="#E8E8E8" stroke-width="0.6"/>
<g clip-path="url(#clip0_5716_25231)">
<path d="M14.502 7.4982C14.6333 7.36688 14.7892 7.26271 14.9608 7.19163C15.1323 7.12056 15.3162 7.08398 15.502 7.08398C15.6877 7.08398 15.8716 7.12056 16.0432 7.19163C16.2147 7.26271 16.3706 7.36688 16.502 7.4982C16.6333 7.62952 16.7374 7.78542 16.8085 7.957C16.8796 8.12858 16.9162 8.31248 16.9162 8.4982C16.9162 8.68392 16.8796 8.86781 16.8085 9.03939C16.7374 9.21097 16.6333 9.36688 16.502 9.4982L9.75195 16.2482L7.00195 16.9982L7.75195 14.2482L14.502 7.4982Z" stroke="#C5C8CE" stroke-width="0.857143" stroke-linecap="round" stroke-linejoin="round"/>
</g>
<defs>
<clipPath id="clip0_5716_25231">
<rect width="12" height="12" fill="white" transform="translate(6 6)"/>
</clipPath>
</defs>
</svg>
